<svg aria-hidden="true" style="position: absolute; width: 0; height: 0; overflow: hidden;" version="1.1" xmlns="http://www.w3.org/2000/svg" xmlns:xlink="http://www.w3.org/1999/xlink">
<defs>
<symbol id="icon-rss" viewBox="0 0 32 32">
<path d="M8.24 26.667c1.605 0 2.907-1.301 2.907-2.907s-1.301-2.907-2.907-2.907c-1.605 0-2.907 1.301-2.907 2.907s1.301 2.907 2.907 2.907z"></path>
<path d="M5.333 5.92v3.773c9.373 0 16.973 7.6 16.973 16.973h3.773c0-11.453-9.293-20.747-20.747-20.747zM5.333 13.467v3.773c5.2 0 9.427 4.227 9.427 9.427h3.773c0-7.293-5.907-13.2-13.2-13.2z"></path>
</symbol>
<symbol id="icon-github" viewBox="0 0 32 32">
<path d="M16.034 2.667c-7.345 0-13.299 5.953-13.299 13.299 0 5.875 3.809 10.86 9.095 12.62 0.665 0.12 0.905-0.289 0.905-0.641 0-0.316-0.011-1.153-0.015-2.261-3.7 0.803-4.481-1.784-4.481-1.784-0.603-1.536-1.476-1.945-1.476-1.945-1.207-0.825 0.092-0.807 0.092-0.807 1.336 0.093 2.036 1.371 2.036 1.371 1.187 2.032 3.115 1.445 3.869 1.105 0.121-0.86 0.468-1.447 0.847-1.779-2.952-0.335-6.056-1.476-6.056-6.573 0-1.449 0.519-2.639 1.365-3.567-0.135-0.337-0.595-1.691 0.132-3.52 0 0 1.116-0.359 3.656 1.361 1.085-0.295 2.204-0.446 3.328-0.448 1.124 0.002 2.243 0.152 3.328 0.448 2.541-1.721 3.656-1.361 3.656-1.361 0.727 1.829 0.271 3.183 0.132 3.52 0.853 0.928 1.365 2.116 1.365 3.567 0 5.111-3.107 6.233-6.069 6.563 0.473 0.411 0.9 1.221 0.9 2.461 0 1.779-0.016 3.213-0.016 3.649 0 0.356 0.237 0.769 0.916 0.639 5.283-1.763 9.088-6.744 9.088-12.617 0-7.345-5.953-13.299-13.299-13.299z"></path>
</symbol>
<symbol id="icon-instagram" viewBox="0 0 32 32">
<path d="M27.929 11.073c-0.014-1.010-0.203-2.010-0.559-2.955-0.309-0.797-0.781-1.521-1.385-2.126s-1.328-1.076-2.126-1.385c-0.933-0.35-1.918-0.54-2.915-0.56-1.283-0.057-1.689-0.073-4.945-0.073s-3.673 0-4.947 0.073c-0.996 0.021-1.981 0.21-2.913 0.56-0.797 0.309-1.521 0.78-2.126 1.385s-1.076 1.329-1.385 2.126c-0.351 0.932-0.54 1.918-0.559 2.913-0.057 1.284-0.075 1.691-0.075 4.947s0 3.672 0.075 4.947c0.020 0.997 0.208 1.981 0.559 2.916 0.309 0.797 0.781 1.521 1.386 2.125s1.329 1.076 2.126 1.384c0.93 0.364 1.915 0.567 2.913 0.6 1.284 0.057 1.691 0.075 4.947 0.075s3.673 0 4.947-0.075c0.996-0.020 1.982-0.209 2.915-0.559 0.797-0.309 1.521-0.781 2.125-1.386s1.076-1.328 1.385-2.125c0.351-0.933 0.539-1.917 0.559-2.916 0.057-1.283 0.075-1.689 0.075-4.947-0.003-3.256-0.003-3.669-0.077-4.945zM15.992 22.136c-3.405 0-6.164-2.759-6.164-6.164s2.759-6.164 6.164-6.164c1.635 0 3.203 0.649 4.359 1.805s1.805 2.724 1.805 4.359c0 1.635-0.649 3.203-1.805 4.359s-2.724 1.805-4.359 1.805zM22.401 11.017c-0.189 0-0.376-0.037-0.55-0.109s-0.333-0.178-0.466-0.312c-0.134-0.133-0.239-0.292-0.312-0.466s-0.109-0.361-0.109-0.55c0-0.189 0.037-0.376 0.109-0.55s0.178-0.333 0.311-0.466 0.292-0.239 0.466-0.311c0.174-0.072 0.361-0.109 0.55-0.109s0.375 0.037 0.55 0.109c0.174 0.072 0.333 0.178 0.466 0.311s0.239 0.292 0.311 0.466c0.072 0.174 0.109 0.361 0.109 0.55 0 0.795-0.643 1.437-1.436 1.437z"></path>
<path d="M15.992 19.976c2.211 0 4.004-1.793 4.004-4.004s-1.793-4.004-4.004-4.004-4.004 1.793-4.004 4.004c0 2.211 1.793 4.004 4.004 4.004z"></path>
</symbol>
<symbol id="icon-pinterest" viewBox="0 0 34 32">
<path d="M12.98 28.72c1.378 0.387 2.771 0.613 4.25 0.613 3.808 0 7.461-1.405 10.153-3.905s4.206-5.892 4.206-9.428c0-1.751-0.371-3.485-1.093-5.102s-1.779-3.088-3.113-4.326c-1.333-1.238-2.916-2.22-4.658-2.89s-3.609-1.015-5.495-1.015-3.753 0.345-5.495 1.015c-1.742 0.67-3.325 1.652-4.658 2.89-2.693 2.5-4.206 5.892-4.206 9.428 0 5.667 3.834 10.533 9.247 12.453-0.129-1.040-0.258-2.76 0-3.947l1.651-6.587c0 0-0.416-0.773-0.416-2 0-1.84 1.235-3.213 2.642-3.213 1.235 0 1.809 0.84 1.809 1.92 0 1.147-0.818 2.787-1.235 4.36-0.244 1.307 0.747 2.453 2.183 2.453 2.556 0 4.537-2.533 4.537-6.107 0-3.2-2.47-5.387-6.017-5.387-4.049 0-6.433 2.8-6.433 5.747 0 1.147 0.402 2.307 1.063 3.067 0.129 0.080 0.129 0.187 0.086 0.387l-0.416 1.453c0 0.227-0.158 0.307-0.402 0.147-1.838-0.747-2.901-3.173-2.901-5.133 0-4.213 3.216-8.040 9.42-8.040 4.939 0 8.788 3.293 8.788 7.667 0 4.587-3.058 8.267-7.438 8.267-1.393 0-2.757-0.693-3.245-1.507l-0.962 3.16c-0.33 1.147-1.235 2.68-1.852 3.6v-0.040z"></path>
</symbol>
<symbol id="icon-linkedin" viewBox="0 0 32 32">
<path d="M26.667 4h-21.333c-0.354 0-0.693 0.14-0.943 0.391s-0.391 0.589-0.391 0.943v21.333c0 0.354 0.14 0.693 0.391 0.943s0.589 0.391 0.943 0.391h21.333c0.354 0 0.693-0.14 0.943-0.391s0.391-0.589 0.391-0.943v-21.333c0-0.354-0.14-0.693-0.391-0.943s-0.589-0.391-0.943-0.391zM11.119 24.449h-3.563v-11.453h3.563v11.453zM9.337 11.432c-0.547 0-1.072-0.217-1.459-0.605s-0.605-0.912-0.605-1.459c0-0.547 0.217-1.072 0.605-1.459s0.912-0.605 1.459-0.605c0.547 0 1.072 0.217 1.459 0.605s0.605 0.912 0.605 1.459c0 0.547-0.217 1.072-0.605 1.459s-0.912 0.605-1.459 0.605zM24.451 24.449h-3.559v-5.569c0-1.328-0.024-3.036-1.851-3.036-1.853 0-2.135 1.448-2.135 2.943v5.664h-3.556v-11.453h3.413v1.565h0.049c0.473-0.9 1.636-1.849 3.365-1.849 3.605 0 4.271 2.371 4.271 5.456v6.28h0.001z"></path>
</symbol>
<symbol id="icon-twitter" viewBox="0 0 32 32">
<path d="M26.177 10.663c0.017 0.233 0.017 0.465 0.017 0.697 0 7.1-5.404 15.281-15.28 15.281-3.043 0-5.869-0.881-8.248-2.412 0.432 0.049 0.848 0.067 1.297 0.067 2.417 0.006 4.766-0.802 6.668-2.295-1.121-0.020-2.207-0.39-3.108-1.058s-1.57-1.6-1.915-2.666c0.332 0.049 0.665 0.083 1.015 0.083 0.481 0 0.965-0.067 1.415-0.183-1.216-0.246-2.31-0.905-3.095-1.866s-1.213-2.164-1.212-3.405v-0.067c0.716 0.399 1.547 0.648 2.427 0.681-0.737-0.49-1.342-1.155-1.76-1.935s-0.636-1.652-0.635-2.537c0-0.997 0.265-1.912 0.731-2.709 1.349 1.66 3.033 3.018 4.94 3.986s3.998 1.525 6.134 1.634c-0.083-0.4-0.133-0.815-0.133-1.231-0-0.705 0.138-1.404 0.408-2.056s0.665-1.244 1.164-1.743c0.499-0.499 1.091-0.894 1.743-1.164s1.35-0.408 2.056-0.408c1.547 0 2.943 0.648 3.924 1.696 1.202-0.232 2.355-0.671 3.408-1.297-0.401 1.241-1.24 2.293-2.361 2.96 1.066-0.122 2.109-0.402 3.092-0.832-0.735 1.071-1.645 2.010-2.692 2.777z"></path>
</symbol>
<symbol id="icon-facebook" viewBox="0 0 32 32">
<path d="M12.264 28.667h5.333v-10.68h4.805l0.528-5.307h-5.333v-2.68c0-0.354 0.14-0.693 0.391-0.943s0.589-0.391 0.943-0.391h4v-5.333h-4c-1.768 0-3.464 0.702-4.714 1.953s-1.953 2.946-1.953 4.714v2.68h-2.667l-0.528 5.307h3.195v10.68z"></path>
</symbol>
</defs>
</svg>
